<mxfile host="app.diagrams.net" modified="2022-11-24T15:18:22.910Z" agent="5.0 (X11)" etag="BeRuVY5BAKIbRfLWp4C5" version="20.5.1" type="github">
  <diagram id="GJaX1UHzEfaf0BdtF8Ms" name="Page-1">
    <mxGraphModel dx="2424" dy="1971" grid="1" gridSize="10" guides="1" tooltips="1" connect="1" arrows="1" fold="1" page="1" pageScale="1" pageWidth="850" pageHeight="1100" math="0" shadow="0">
      <root>
        <mxCell id="0" />
        <mxCell id="1" parent="0" />
        <mxCell id="OXBZU9ryD7ypF8PHeGm1-4" value="" style="edgeStyle=orthogonalEdgeStyle;rounded=0;orthogonalLoop=1;jettySize=auto;html=1;" parent="1" source="OXBZU9ryD7ypF8PHeGm1-1" target="OXBZU9ryD7ypF8PHeGm1-3" edge="1">
          <mxGeometry relative="1" as="geometry" />
        </mxCell>
        <mxCell id="OXBZU9ryD7ypF8PHeGm1-8" value="" style="edgeStyle=orthogonalEdgeStyle;rounded=0;orthogonalLoop=1;jettySize=auto;html=1;" parent="1" source="OXBZU9ryD7ypF8PHeGm1-1" target="OXBZU9ryD7ypF8PHeGm1-7" edge="1">
          <mxGeometry relative="1" as="geometry" />
        </mxCell>
        <mxCell id="OXBZU9ryD7ypF8PHeGm1-1" value="SIERA" style="outlineConnect=0;dashed=0;verticalLabelPosition=bottom;verticalAlign=top;align=center;html=1;shape=mxgraph.aws3.router;fillColor=#F58536;gradientColor=none;" parent="1" vertex="1">
          <mxGeometry x="200" y="70" width="50" height="50" as="geometry" />
        </mxCell>
        <mxCell id="OXBZU9ryD7ypF8PHeGm1-2" value="" style="line;strokeWidth=4;direction=south;html=1;perimeter=backbonePerimeter;points=[];outlineConnect=0;" parent="1" vertex="1">
          <mxGeometry x="440" y="-70" width="10" height="760" as="geometry" />
        </mxCell>
        <mxCell id="OXBZU9ryD7ypF8PHeGm1-3" value="Belicia" style="outlineConnect=0;dashed=0;verticalLabelPosition=bottom;verticalAlign=top;align=center;html=1;shape=mxgraph.aws3.router;fillColor=#F58536;gradientColor=none;" parent="1" vertex="1">
          <mxGeometry x="200" y="200" width="50" height="50" as="geometry" />
        </mxCell>
        <mxCell id="OXBZU9ryD7ypF8PHeGm1-5" value="BIBAH" style="outlineConnect=0;dashed=0;verticalLabelPosition=bottom;verticalAlign=top;align=center;html=1;shape=mxgraph.aws3.router;fillColor=#F58536;gradientColor=none;" parent="1" vertex="1">
          <mxGeometry x="200" y="460" width="50" height="50" as="geometry" />
        </mxCell>
        <mxCell id="OXBZU9ryD7ypF8PHeGm1-10" value="" style="edgeStyle=orthogonalEdgeStyle;rounded=0;orthogonalLoop=1;jettySize=auto;html=1;" parent="1" source="OXBZU9ryD7ypF8PHeGm1-7" target="OXBZU9ryD7ypF8PHeGm1-9" edge="1">
          <mxGeometry relative="1" as="geometry" />
        </mxCell>
        <mxCell id="OXBZU9ryD7ypF8PHeGm1-7" value="AURA" style="outlineConnect=0;dashed=0;verticalLabelPosition=bottom;verticalAlign=top;align=center;html=1;shape=mxgraph.aws3.router;fillColor=#F58536;gradientColor=none;" parent="1" vertex="1">
          <mxGeometry x="630" y="70" width="50" height="50" as="geometry" />
        </mxCell>
        <mxCell id="OXBZU9ryD7ypF8PHeGm1-9" value="ALICIA" style="outlineConnect=0;dashed=0;verticalLabelPosition=bottom;verticalAlign=top;align=center;html=1;shape=mxgraph.aws3.router;fillColor=#F58536;gradientColor=none;" parent="1" vertex="1">
          <mxGeometry x="630" y="200" width="50" height="50" as="geometry" />
        </mxCell>
        <mxCell id="OXBZU9ryD7ypF8PHeGm1-11" value="" style="line;strokeWidth=4;html=1;perimeter=backbonePerimeter;points=[];outlineConnect=0;" parent="1" vertex="1">
          <mxGeometry y="320" width="860" height="10" as="geometry" />
        </mxCell>
        <mxCell id="OXBZU9ryD7ypF8PHeGm1-12" value="" style="endArrow=classic;startArrow=classic;html=1;rounded=0;exitX=1;exitY=0.5;exitDx=0;exitDy=0;exitPerimeter=0;" parent="1" source="OXBZU9ryD7ypF8PHeGm1-3" target="OXBZU9ryD7ypF8PHeGm1-7" edge="1">
          <mxGeometry width="50" height="50" relative="1" as="geometry">
            <mxPoint x="350" y="240" as="sourcePoint" />
            <mxPoint x="400" y="190" as="targetPoint" />
          </mxGeometry>
        </mxCell>
        <mxCell id="OXBZU9ryD7ypF8PHeGm1-13" value="" style="endArrow=classic;startArrow=classic;html=1;rounded=0;exitX=1;exitY=0.5;exitDx=0;exitDy=0;exitPerimeter=0;entryX=0;entryY=0.5;entryDx=0;entryDy=0;entryPerimeter=0;" parent="1" source="OXBZU9ryD7ypF8PHeGm1-1" target="OXBZU9ryD7ypF8PHeGm1-9" edge="1">
          <mxGeometry width="50" height="50" relative="1" as="geometry">
            <mxPoint x="290" y="470" as="sourcePoint" />
            <mxPoint x="340" y="420" as="targetPoint" />
          </mxGeometry>
        </mxCell>
        <mxCell id="OXBZU9ryD7ypF8PHeGm1-14" value="" style="endArrow=classic;startArrow=classic;html=1;rounded=0;" parent="1" edge="1">
          <mxGeometry width="50" height="50" relative="1" as="geometry">
            <mxPoint x="260" y="230" as="sourcePoint" />
            <mxPoint x="620" y="230" as="targetPoint" />
          </mxGeometry>
        </mxCell>
        <mxCell id="OXBZU9ryD7ypF8PHeGm1-15" value="" style="endArrow=classic;startArrow=classic;html=1;rounded=0;exitX=1;exitY=0.5;exitDx=0;exitDy=0;exitPerimeter=0;entryX=0.5;entryY=1;entryDx=0;entryDy=0;entryPerimeter=0;" parent="1" source="OXBZU9ryD7ypF8PHeGm1-5" target="OXBZU9ryD7ypF8PHeGm1-9" edge="1">
          <mxGeometry width="50" height="50" relative="1" as="geometry">
            <mxPoint x="360" y="510" as="sourcePoint" />
            <mxPoint x="410" y="460" as="targetPoint" />
          </mxGeometry>
        </mxCell>
        <mxCell id="OXBZU9ryD7ypF8PHeGm1-16" value="NCIX" style="outlineConnect=0;dashed=0;verticalLabelPosition=bottom;verticalAlign=top;align=center;html=1;shape=mxgraph.aws3.router;fillColor=#F58536;gradientColor=none;" parent="1" vertex="1">
          <mxGeometry x="630" y="460" width="50" height="50" as="geometry" />
        </mxCell>
        <mxCell id="OXBZU9ryD7ypF8PHeGm1-17" value="TIARA" style="outlineConnect=0;dashed=0;verticalLabelPosition=bottom;verticalAlign=top;align=center;html=1;shape=mxgraph.aws3.router;fillColor=#F58536;gradientColor=none;" parent="1" vertex="1">
          <mxGeometry x="790" y="70" width="50" height="50" as="geometry" />
        </mxCell>
        <mxCell id="OXBZU9ryD7ypF8PHeGm1-18" value="" style="endArrow=classic;startArrow=classic;html=1;rounded=0;exitX=0.5;exitY=0;exitDx=0;exitDy=0;exitPerimeter=0;entryX=0.5;entryY=1;entryDx=0;entryDy=0;entryPerimeter=0;" parent="1" source="OXBZU9ryD7ypF8PHeGm1-16" target="OXBZU9ryD7ypF8PHeGm1-9" edge="1">
          <mxGeometry width="50" height="50" relative="1" as="geometry">
            <mxPoint x="560" y="450" as="sourcePoint" />
            <mxPoint x="610" y="400" as="targetPoint" />
          </mxGeometry>
        </mxCell>
        <mxCell id="OXBZU9ryD7ypF8PHeGm1-19" value="" style="endArrow=classic;startArrow=classic;html=1;rounded=0;entryX=0;entryY=0.5;entryDx=0;entryDy=0;entryPerimeter=0;" parent="1" target="OXBZU9ryD7ypF8PHeGm1-16" edge="1">
          <mxGeometry width="50" height="50" relative="1" as="geometry">
            <mxPoint x="230" y="250" as="sourcePoint" />
            <mxPoint x="550" y="440" as="targetPoint" />
          </mxGeometry>
        </mxCell>
        <mxCell id="OXBZU9ryD7ypF8PHeGm1-20" value="" style="endArrow=classic;startArrow=classic;html=1;rounded=0;exitX=0.5;exitY=0;exitDx=0;exitDy=0;exitPerimeter=0;entryX=0.5;entryY=1;entryDx=0;entryDy=0;entryPerimeter=0;" parent="1" source="OXBZU9ryD7ypF8PHeGm1-5" target="OXBZU9ryD7ypF8PHeGm1-3" edge="1">
          <mxGeometry width="50" height="50" relative="1" as="geometry">
            <mxPoint x="90" y="540" as="sourcePoint" />
            <mxPoint x="230" y="260" as="targetPoint" />
          </mxGeometry>
        </mxCell>
        <mxCell id="OXBZU9ryD7ypF8PHeGm1-21" value="" style="endArrow=classic;startArrow=classic;html=1;rounded=0;" parent="1" edge="1">
          <mxGeometry width="50" height="50" relative="1" as="geometry">
            <mxPoint x="250" y="480" as="sourcePoint" />
            <mxPoint x="620" y="480" as="targetPoint" />
          </mxGeometry>
        </mxCell>
        <mxCell id="OXBZU9ryD7ypF8PHeGm1-22" value="" style="endArrow=classic;startArrow=classic;html=1;rounded=0;exitX=1;exitY=0.5;exitDx=0;exitDy=0;exitPerimeter=0;entryX=0.5;entryY=1;entryDx=0;entryDy=0;entryPerimeter=0;" parent="1" source="OXBZU9ryD7ypF8PHeGm1-3" target="OXBZU9ryD7ypF8PHeGm1-17" edge="1">
          <mxGeometry width="50" height="50" relative="1" as="geometry">
            <mxPoint x="480" y="300" as="sourcePoint" />
            <mxPoint x="530" y="250" as="targetPoint" />
          </mxGeometry>
        </mxCell>
        <mxCell id="OXBZU9ryD7ypF8PHeGm1-23" value="" style="endArrow=classic;startArrow=classic;html=1;rounded=0;exitX=1;exitY=0.5;exitDx=0;exitDy=0;exitPerimeter=0;entryX=0.5;entryY=1;entryDx=0;entryDy=0;entryPerimeter=0;" parent="1" source="OXBZU9ryD7ypF8PHeGm1-9" target="OXBZU9ryD7ypF8PHeGm1-17" edge="1">
          <mxGeometry width="50" height="50" relative="1" as="geometry">
            <mxPoint x="750" y="420" as="sourcePoint" />
            <mxPoint x="800" y="370" as="targetPoint" />
          </mxGeometry>
        </mxCell>
        <mxCell id="OXBZU9ryD7ypF8PHeGm1-24" value="CBN" style="outlineConnect=0;dashed=0;verticalLabelPosition=bottom;verticalAlign=top;align=center;html=1;shape=mxgraph.aws3.internet_gateway;fillColor=#F58536;gradientColor=none;" parent="1" vertex="1">
          <mxGeometry x="50" y="70" width="50" height="50" as="geometry" />
        </mxCell>
        <mxCell id="OXBZU9ryD7ypF8PHeGm1-25" value="JKT IX" style="outlineConnect=0;dashed=0;verticalLabelPosition=bottom;verticalAlign=top;align=center;html=1;shape=mxgraph.aws3.internet_gateway;fillColor=#F58536;gradientColor=none;" parent="1" vertex="1">
          <mxGeometry x="150" y="-70" width="30" height="30" as="geometry" />
        </mxCell>
        <mxCell id="OXBZU9ryD7ypF8PHeGm1-26" value="CDIX" style="outlineConnect=0;dashed=0;verticalLabelPosition=bottom;verticalAlign=top;align=center;html=1;shape=mxgraph.aws3.internet_gateway;fillColor=#F58536;gradientColor=none;" parent="1" vertex="1">
          <mxGeometry x="210" y="-70" width="30" height="30" as="geometry" />
        </mxCell>
        <mxCell id="OXBZU9ryD7ypF8PHeGm1-27" value="APJI IX" style="outlineConnect=0;dashed=0;verticalLabelPosition=bottom;verticalAlign=top;align=center;html=1;shape=mxgraph.aws3.internet_gateway;fillColor=#F58536;gradientColor=none;" parent="1" vertex="1">
          <mxGeometry x="270" y="-70" width="30" height="30" as="geometry" />
        </mxCell>
        <mxCell id="OXBZU9ryD7ypF8PHeGm1-29" value="SDI" style="outlineConnect=0;dashed=0;verticalLabelPosition=bottom;verticalAlign=top;align=center;html=1;shape=mxgraph.aws3.internet_gateway;fillColor=#F58536;gradientColor=none;" parent="1" vertex="1">
          <mxGeometry x="630" y="-50" width="50" height="50" as="geometry" />
        </mxCell>
        <mxCell id="OXBZU9ryD7ypF8PHeGm1-30" value="OIXP" style="outlineConnect=0;dashed=0;verticalLabelPosition=bottom;verticalAlign=top;align=center;html=1;shape=mxgraph.aws3.internet_gateway;fillColor=#F58536;gradientColor=none;" parent="1" vertex="1">
          <mxGeometry x="800" y="-50" width="30" height="30" as="geometry" />
        </mxCell>
        <mxCell id="OXBZU9ryD7ypF8PHeGm1-31" value="JABRIX" style="outlineConnect=0;dashed=0;verticalLabelPosition=bottom;verticalAlign=top;align=center;html=1;shape=mxgraph.aws3.internet_gateway;fillColor=#F58536;gradientColor=none;" parent="1" vertex="1">
          <mxGeometry x="210" y="590" width="30" height="30" as="geometry" />
        </mxCell>
        <mxCell id="OXBZU9ryD7ypF8PHeGm1-32" value="NCIX" style="outlineConnect=0;dashed=0;verticalLabelPosition=bottom;verticalAlign=top;align=center;html=1;shape=mxgraph.aws3.internet_gateway;fillColor=#F58536;gradientColor=none;" parent="1" vertex="1">
          <mxGeometry x="640" y="590" width="30" height="30" as="geometry" />
        </mxCell>
        <mxCell id="OXBZU9ryD7ypF8PHeGm1-33" value="" style="endArrow=classic;html=1;rounded=0;exitX=0;exitY=0.5;exitDx=0;exitDy=0;exitPerimeter=0;" parent="1" source="OXBZU9ryD7ypF8PHeGm1-1" target="OXBZU9ryD7ypF8PHeGm1-24" edge="1">
          <mxGeometry width="50" height="50" relative="1" as="geometry">
            <mxPoint x="370" y="320" as="sourcePoint" />
            <mxPoint x="420" y="270" as="targetPoint" />
          </mxGeometry>
        </mxCell>
        <mxCell id="OXBZU9ryD7ypF8PHeGm1-34" value="" style="endArrow=classic;html=1;rounded=0;exitX=0.5;exitY=0;exitDx=0;exitDy=0;exitPerimeter=0;entryX=0.5;entryY=1;entryDx=0;entryDy=0;entryPerimeter=0;" parent="1" source="OXBZU9ryD7ypF8PHeGm1-1" target="OXBZU9ryD7ypF8PHeGm1-25" edge="1">
          <mxGeometry width="50" height="50" relative="1" as="geometry">
            <mxPoint x="210" y="105" as="sourcePoint" />
            <mxPoint x="110" y="105" as="targetPoint" />
          </mxGeometry>
        </mxCell>
        <mxCell id="OXBZU9ryD7ypF8PHeGm1-35" value="" style="endArrow=classic;html=1;rounded=0;exitX=0.5;exitY=0;exitDx=0;exitDy=0;exitPerimeter=0;" parent="1" source="OXBZU9ryD7ypF8PHeGm1-1" target="OXBZU9ryD7ypF8PHeGm1-26" edge="1">
          <mxGeometry width="50" height="50" relative="1" as="geometry">
            <mxPoint x="220" y="115" as="sourcePoint" />
            <mxPoint x="120" y="115" as="targetPoint" />
          </mxGeometry>
        </mxCell>
        <mxCell id="OXBZU9ryD7ypF8PHeGm1-36" value="" style="endArrow=classic;html=1;rounded=0;exitX=0.5;exitY=0;exitDx=0;exitDy=0;exitPerimeter=0;entryX=0.5;entryY=1;entryDx=0;entryDy=0;entryPerimeter=0;" parent="1" source="OXBZU9ryD7ypF8PHeGm1-1" target="OXBZU9ryD7ypF8PHeGm1-27" edge="1">
          <mxGeometry width="50" height="50" relative="1" as="geometry">
            <mxPoint x="230" y="125" as="sourcePoint" />
            <mxPoint x="130" y="125" as="targetPoint" />
          </mxGeometry>
        </mxCell>
        <mxCell id="OXBZU9ryD7ypF8PHeGm1-37" value="" style="endArrow=classic;html=1;rounded=0;exitX=0.5;exitY=0;exitDx=0;exitDy=0;exitPerimeter=0;entryX=0.5;entryY=1;entryDx=0;entryDy=0;entryPerimeter=0;" parent="1" source="OXBZU9ryD7ypF8PHeGm1-7" target="OXBZU9ryD7ypF8PHeGm1-29" edge="1">
          <mxGeometry width="50" height="50" relative="1" as="geometry">
            <mxPoint x="240" y="135" as="sourcePoint" />
            <mxPoint x="140" y="135" as="targetPoint" />
          </mxGeometry>
        </mxCell>
        <mxCell id="OXBZU9ryD7ypF8PHeGm1-38" value="" style="endArrow=classic;html=1;rounded=0;exitX=0.5;exitY=0;exitDx=0;exitDy=0;exitPerimeter=0;entryX=0.5;entryY=1;entryDx=0;entryDy=0;entryPerimeter=0;" parent="1" source="OXBZU9ryD7ypF8PHeGm1-17" target="OXBZU9ryD7ypF8PHeGm1-30" edge="1">
          <mxGeometry width="50" height="50" relative="1" as="geometry">
            <mxPoint x="250" y="145" as="sourcePoint" />
            <mxPoint x="150" y="145" as="targetPoint" />
          </mxGeometry>
        </mxCell>
        <mxCell id="OXBZU9ryD7ypF8PHeGm1-39" value="" style="endArrow=classic;html=1;rounded=0;exitX=0.5;exitY=1;exitDx=0;exitDy=0;exitPerimeter=0;entryX=0.5;entryY=0;entryDx=0;entryDy=0;entryPerimeter=0;" parent="1" source="OXBZU9ryD7ypF8PHeGm1-5" target="OXBZU9ryD7ypF8PHeGm1-31" edge="1">
          <mxGeometry width="50" height="50" relative="1" as="geometry">
            <mxPoint x="260" y="155" as="sourcePoint" />
            <mxPoint x="160" y="155" as="targetPoint" />
          </mxGeometry>
        </mxCell>
        <mxCell id="OXBZU9ryD7ypF8PHeGm1-40" value="" style="endArrow=classic;html=1;rounded=0;" parent="1" source="OXBZU9ryD7ypF8PHeGm1-16" target="OXBZU9ryD7ypF8PHeGm1-32" edge="1">
          <mxGeometry width="50" height="50" relative="1" as="geometry">
            <mxPoint x="270" y="165" as="sourcePoint" />
            <mxPoint x="170" y="165" as="targetPoint" />
          </mxGeometry>
        </mxCell>
        <mxCell id="OXBZU9ryD7ypF8PHeGm1-41" value="&lt;font style=&quot;font-size: 18px;&quot;&gt;NTT CSF&lt;/font&gt;" style="text;html=1;align=center;verticalAlign=middle;resizable=0;points=[];autosize=1;strokeColor=none;fillColor=none;" parent="1" vertex="1">
          <mxGeometry x="55" y="200" width="100" height="40" as="geometry" />
        </mxCell>
        <mxCell id="OXBZU9ryD7ypF8PHeGm1-43" value="&lt;font style=&quot;font-size: 18px;&quot;&gt;3D IDC&lt;/font&gt;" style="text;html=1;align=center;verticalAlign=middle;resizable=0;points=[];autosize=1;strokeColor=none;fillColor=none;" parent="1" vertex="1">
          <mxGeometry x="760" y="200" width="80" height="40" as="geometry" />
        </mxCell>
        <mxCell id="OXBZU9ryD7ypF8PHeGm1-44" value="&lt;font style=&quot;font-size: 18px;&quot;&gt;LEMBONG&lt;/font&gt;" style="text;html=1;align=center;verticalAlign=middle;resizable=0;points=[];autosize=1;strokeColor=none;fillColor=none;" parent="1" vertex="1">
          <mxGeometry x="745" y="465" width="110" height="40" as="geometry" />
        </mxCell>
        <mxCell id="OXBZU9ryD7ypF8PHeGm1-45" value="&lt;font style=&quot;font-size: 18px;&quot;&gt;BBU BANDUNG&lt;/font&gt;" style="text;html=1;align=center;verticalAlign=middle;resizable=0;points=[];autosize=1;strokeColor=none;fillColor=none;" parent="1" vertex="1">
          <mxGeometry x="15" y="460" width="160" height="40" as="geometry" />
        </mxCell>
      </root>
    </mxGraphModel>
  </diagram>
</mxfile>
